<?xml version="1.0" encoding="utf-8"?>
<!-- Generator: Adobe Illustrator 21.0.0, SVG Export Plug-In . SVG Version: 6.00 Build 0)  -->
<svg version="1.1" id="레이어_1" xmlns="http://www.w3.org/2000/svg" xmlns:xlink="http://www.w3.org/1999/xlink" x="0px"
	 y="0px" viewBox="0 0 47 63" style="enable-background:new 0 0 47 63;" xml:space="preserve">
<style type="text/css">
	.st0{fill:#666666;}
	.st1{fill:#C5AF86;}
	.st2{fill:#8C3086;}
	.st3{fill:#524224;}
</style>
<g>
	<path class="st0" d="M46.6,4.3c0.3,0,0.5-0.2,0.5-0.5V0.5C47,0.2,46.8,0,46.6,0H0.5C0.2,0,0,0.2,0,0.5v3.4c0,0.3,0.2,0.5,0.5,0.5
		h5.1v5.2H4.8c-0.4,0-0.7,0.3-0.7,0.7s0.3,0.7,0.7,0.7h2.6h0.5c0.4,0,0.7-0.3,0.7-0.7S8.2,9.5,7.8,9.5H7V4.3h15.8v11.1H22
		c-0.4,0-0.7,0.3-0.7,0.7s0.3,0.7,0.7,0.7h2.7H25c0.4,0,0.7-0.3,0.7-0.7s-0.3-0.7-0.7-0.7h-0.8V4.3H46.6z"/>
	<rect x="39" y="22.1" class="st1" width="3.8" height="1.5"/>
	<rect x="39.3" y="24.9" class="st1" width="2.9" height="3.6"/>
	<path class="st1" d="M39.6,21h2.3v-0.1h-2.3C39.6,20.8,39.6,20.9,39.6,21L39.6,21z"/>
	<path class="st0" d="M18.3,38.9c0,0.2,0,21.7,0,21.7c0,1.3,1.2,2.5,2.6,2.5h5.5c1.4,0,2.5-1.1,2.5-2.5c0,0,0-21.4,0-21.7
		c0-1.8-1.2-3.5-3-4.3v-9.8c0.3-0.2,0.6-0.5,0.6-0.9v-1.9c0-0.4-0.3-0.8-0.7-0.9v-2.7c0-0.7-0.5-1.2-1.1-1.2h-2.3
		c-0.7,0-1.2,0.5-1.2,1.2v2.8c-0.3,0.2-0.6,0.5-0.6,0.8v1.9c0,0.3,0.2,0.6,0.5,0.8v10C19.4,35.4,18.3,37,18.3,38.9z M22.4,18.3
		C22.4,18.3,22.4,18.3,22.4,18.3l2.3,0V21h-2.3V18.3z M21.8,22.1h3.6v1.5h-3.6V22.1z M21.9,35.5c0.2-0.1,0.4-0.3,0.4-0.5v-10h2.6v10
		c0,0.2,0.2,0.5,0.4,0.5c1.5,0.6,2.6,1.9,2.6,3.4c0,0.2,0,21.7,0,21.7c0,0.7-0.6,1.3-1.3,1.3h-5.5c-0.8,0-1.4-0.6-1.4-1.3
		c0,0,0-21.5,0-21.7C19.4,37.4,20.4,36.1,21.9,35.5z"/>
	<path class="st1" d="M22.4,21h2.3v-2.7h-2.3c0,0-0.1,0-0.1,0V21z"/>
	<path class="st0" d="M1,38.9C1,39,1,60.5,1,60.5C1,61.9,2.2,63,3.6,63h5.5c1.4,0,2.5-1.1,2.5-2.5c0,0,0-21.4,0-21.7
		c0-1.8-1.2-3.5-3-4.3v-9.8c0.3-0.2,0.6-0.5,0.6-0.9v-1.9c0-0.5-0.5-0.9-1-0.9h-1H4.4c-0.6,0-1,0.4-1,0.9v1.9c0,0.3,0.2,0.6,0.5,0.8
		v9.9C2.1,35.4,1,37,1,38.9z M4.5,22.1h3.6v1.5H4.5V22.1z M4.6,35.5C4.9,35.4,5,35.2,5,35v-10h2.6v10c0,0.2,0.2,0.5,0.4,0.5
		c1.5,0.6,2.6,1.9,2.6,3.4c0,0.2,0,21.7,0,21.7c0,0.7-0.6,1.3-1.3,1.3H3.6c-0.8,0-1.4-0.6-1.4-1.3c0,0,0-21.5,0-21.7
		C2.2,37.4,3.2,36.1,4.6,35.5z"/>
	<path class="st0" d="M5.4,11.9c-0.6,0-1.2,0.5-1.2,1.2v5.8c0,0.6,0.5,1.2,1.2,1.2h2c0.6,0,1.2-0.5,1.2-1.2V13
		c0-0.6-0.5-1.2-1.2-1.2H5.4z M5.4,18.9V13h2l0,5.8H5.4z"/>
	<rect x="5.4" y="13" class="st1" width="2" height="5.8"/>
	<g>
		<path class="st2" d="M22.8,28.1V36c-1.4,0.2-2.5,1.5-2.5,2.7c0,0.1,0,20.6,0,20.6c0,0.7,0.6,1.2,1.4,1.2h3.9
			c0.7,0,1.3-0.6,1.3-1.2c0,0-0.1-20.4-0.1-20.6c0-1.2-0.8-2.2-2.1-2.6L24.2,36v-7.9H22.8z"/>
	</g>
	<path class="st0" d="M35.5,38.9c0,0.2,0,21.5,0,21.7c0,1.3,1.2,2.4,2.6,2.4h5.5c1.4,0,2.5-1.1,2.5-2.4c0-0.2,0-21.4,0-21.7
		c0-1.8-1.2-3.5-2.9-4.3v-9.9c0.2-0.2,0.6-0.5,0.6-0.9v-1.9c0-0.4-0.3-0.8-0.7-0.9v-0.2c0-0.7-0.5-1.2-1.2-1.2h-2.3
		c-0.7,0-1.2,0.6-1.2,1.2V21c-0.3,0.2-0.6,0.5-0.6,0.9v1.9c0,0.3,0.1,0.6,0.5,0.8v9.9C36.6,35.4,35.5,37.1,35.5,38.9z M39.6,20.8H42
		v0.1h-2.3L39.6,20.8C39.6,20.9,39.6,20.8,39.6,20.8z M39,22.1h3.6v1.5H39V22.1z M42.1,24.9v3.6h-2.6v-3.6H42.1z M39.1,35.5
		c0.2-0.1,0.4-0.3,0.4-0.5v-5.1h2.6v5c0,0.2,0.1,0.5,0.4,0.5c0.9,0.3,1.6,0.9,2,1.6l0.5,1.4l0,19.6h0c0,1.4,0,2.3,0,2.3
		c0,0.7-0.6,1.3-1.3,1.3h-5.5c-0.8,0-1.4-0.6-1.4-1.3c0-0.2,0-21.5,0-21.7C36.7,37.4,37.7,36.1,39.1,35.5z"/>
	<g>
		<path class="st3" d="M39.3,35.4c0.1-0.1,0.2-0.2,0.2-0.4C39.4,35.2,39.3,35.3,39.3,35.4z"/>
	</g>
	<g>
		<path class="st3" d="M39.3,35.4c0.1-0.1,0.2-0.2,0.2-0.4C39.4,35.2,39.3,35.3,39.3,35.4z"/>
	</g>
	<g>
		<path class="st3" d="M39.3,35.4c0.1-0.1,0.2-0.2,0.2-0.4C39.4,35.2,39.3,35.3,39.3,35.4z"/>
	</g>
	<g>
		<path class="st2" d="M5.6,28.1V36c-1.4,0.2-2.5,1.5-2.5,2.7c0,0.1,0,20.6,0,20.6c0,0.7,0.6,1.2,1.4,1.2h3.9c0.7,0,1.3-0.6,1.3-1.2
			c0,0-0.1-20.4-0.1-20.6c0-1.2-0.8-2.2-2.1-2.6L7,36v-7.9H5.6z"/>
	</g>
	<g>
		<path class="st2" d="M37.6,38.7c0,0.1,0,20.6,0,20.6c0,0.7,0.6,1.2,1.4,1.2h3.9c0.7,0,1.3-0.6,1.3-1.2c0,0-0.1-20.4-0.1-20.6
			c0-1.2-0.8-2.2-2.1-2.6L41.4,36l0-3.4H40l0,3.4C38.7,36.2,37.6,37.5,37.6,38.7z"/>
	</g>
</g>
</svg>
