<?xml version="1.0" encoding="utf-8"?>
<!-- Generator: Adobe Illustrator 21.0.0, SVG Export Plug-In . SVG Version: 6.00 Build 0)  -->
<svg version="1.1" id="레이어_1" xmlns="http://www.w3.org/2000/svg" xmlns:xlink="http://www.w3.org/1999/xlink" x="0px"
	 y="0px" viewBox="0 0 45.8 63" style="enable-background:new 0 0 45.8 63;" xml:space="preserve">
<style type="text/css">
	.st0{fill:#666666;}
</style>
<g>
	<g>
		<path class="st0" d="M16.3,48.3l2.6,3.6c0.9,1.2,2.3,2,3.8,2c0.5,0,0.9-0.4,0.9-0.9c0-0.5-0.4-0.9-0.9-0.9c-0.9,0-1.8-0.5-2.4-1.2
			l-2.6-3.6c-0.3-0.4-0.8-0.5-1.2-0.2C16.1,47.4,16,47.9,16.3,48.3z"/>
		<path class="st0" d="M44.9,61.2h-2.5V33.5c0-0.5-0.4-0.9-0.9-0.9h-2v-4.4c0-0.5-0.4-0.9-0.9-0.9h-2.3V8.5c0-2.3-1.8-4.1-4.1-4.1
			h-8.7V4.2c0-1.4,1.1-2.5,2.5-2.5h12.2c1.4,0,2.5,1.1,2.5,2.5v12.6c0,2.3,1.9,4.2,4.2,4.2c0.5,0,0.9-0.4,0.9-0.9s-0.4-0.9-0.9-0.9
			c-1.4,0-2.5-1.1-2.5-2.5V4.2c0-2.3-1.9-4.2-4.2-4.2H26c-2.3,0-4.2,1.9-4.2,4.2v0.2h-8.4c-2.3,0-4.1,1.8-4.1,4.1v18.8H7
			c-0.5,0-0.9,0.4-0.9,0.9v4.4H4.2c-0.5,0-0.9,0.4-0.9,0.9v27.7H0.9c-0.5,0-0.9,0.4-0.9,0.9C0,62.6,0.4,63,0.9,63h6.7
			c0.5,0,0.9-0.4,0.9-0.9c0-0.5-0.4-0.9-0.9-0.9H5.1V34.4h1v4.5c0,0.5,0.4,0.9,0.9,0.9h2.3v2.4c0,0,0,0,0,0c0,0,0,0.1,0,0.1
			c0,0.1,0.1,0.2,0.1,0.3c0,0,0,0,0,0.1l7.9,11.2c1.3,1.8,3.3,2.9,5.5,2.9c2.2,0,4.2-1.1,5.5-2.9l7.9-11.2c0,0,0,0,0-0.1
			c0.1-0.1,0.1-0.2,0.1-0.3c0,0,0-0.1,0-0.1c0,0,0,0,0,0v-2.4h2.3c0.5,0,0.9-0.4,0.9-0.9v-4.5h1.2v26.9h-2.5c-0.5,0-0.9,0.4-0.9,0.9
			c0,0.5,0.4,0.9,0.9,0.9h6.7c0.5,0,0.9-0.4,0.9-0.9C45.8,61.6,45.4,61.2,44.9,61.2z M11,8.5c0-1.3,1.1-2.4,2.4-2.4h18.8
			c1.3,0,2.4,1.1,2.4,2.4v19.7v10.7v2.4H11v-2.4V28.2V8.5z M7.8,38v-8.9h1.5V38H7.8z M26.9,52.9c-0.9,1.3-2.4,2.1-4.1,2.1
			c-1.6,0-3.1-0.8-4.1-2.1l-6.9-9.8h21.9L26.9,52.9z M37.8,38h-1.5v-8.9h1.5V38z"/>
		<path class="st0" d="M22.8,33.4c5.3,0,9.5-4.3,9.5-9.5c0-5.3-4.3-9.5-9.5-9.5c-5.3,0-9.5,4.3-9.5,9.5
			C13.3,29.1,17.6,33.4,22.8,33.4z M22.8,16.1c4.3,0,7.8,3.5,7.8,7.8c0,4.3-3.5,7.8-7.8,7.8S15,28.2,15,23.9
			C15,19.6,18.5,16.1,22.8,16.1z"/>
		<path class="st0" d="M22.8,19.5c0.5,0,0.9-0.4,0.9-0.9v-1.5c0-0.5-0.4-0.9-0.9-0.9c-0.5,0-0.9,0.4-0.9,0.9v1.5
			C21.9,19.1,22.3,19.5,22.8,19.5z"/>
		<path class="st0" d="M22.8,28.2c-0.5,0-0.9,0.4-0.9,0.9v1.5c0,0.5,0.4,0.9,0.9,0.9c0.5,0,0.9-0.4,0.9-0.9v-1.5
			C23.7,28.6,23.3,28.2,22.8,28.2z"/>
		<path class="st0" d="M18.5,23.8c0-0.5-0.4-0.9-0.9-0.9h-1.5c-0.5,0-0.9,0.4-0.9,0.9c0,0.5,0.4,0.9,0.9,0.9h1.5
			C18.1,24.7,18.5,24.3,18.5,23.8z"/>
		<path class="st0" d="M27.2,23.8c0,0.5,0.4,0.9,0.9,0.9h1.5c0.5,0,0.9-0.4,0.9-0.9c0-0.5-0.4-0.9-0.9-0.9h-1.5
			C27.6,23,27.2,23.4,27.2,23.8z"/>
		<path class="st0" d="M20.3,28.3c-0.4-0.2-1-0.1-1.2,0.3l-0.4,0.6c-0.2,0.4-0.1,1,0.3,1.2c0.1,0.1,0.3,0.1,0.4,0.1
			c0.3,0,0.6-0.2,0.8-0.4l0.4-0.6C20.8,29,20.7,28.5,20.3,28.3z"/>
		<path class="st0" d="M29,26.4l-0.6-0.4c-0.4-0.2-1-0.1-1.2,0.3c-0.2,0.4-0.1,1,0.3,1.2l0.6,0.4c0.1,0.1,0.3,0.1,0.4,0.1
			c0.3,0,0.6-0.2,0.8-0.4C29.6,27.2,29.5,26.7,29,26.4z"/>
		<path class="st0" d="M16.6,21.2l0.6,0.4c0.1,0.1,0.3,0.1,0.4,0.1c0.3,0,0.6-0.2,0.8-0.4c0.2-0.4,0.1-1-0.3-1.2l-0.6-0.4
			c-0.4-0.2-1-0.1-1.2,0.3C16,20.5,16.2,21,16.6,21.2z"/>
		<path class="st0" d="M19.1,19.1c0.2,0.3,0.5,0.4,0.8,0.4c0.1,0,0.3,0,0.4-0.1c0.4-0.2,0.6-0.8,0.3-1.2l-0.4-0.6
			c-0.2-0.4-0.8-0.6-1.2-0.3c-0.4,0.2-0.6,0.8-0.3,1.2L19.1,19.1z"/>
		<path class="st0" d="M26.6,28.6c-0.2-0.4-0.8-0.6-1.2-0.3c-0.4,0.2-0.6,0.8-0.3,1.2l0.4,0.6c0.2,0.3,0.5,0.4,0.8,0.4
			c0.1,0,0.3,0,0.4-0.1c0.4-0.2,0.6-0.8,0.3-1.2L26.6,28.6z"/>
		<path class="st0" d="M28,21.7c0.1,0,0.3,0,0.4-0.1l0.6-0.4c0.4-0.2,0.6-0.8,0.3-1.2c-0.2-0.4-0.8-0.6-1.2-0.3l-0.6,0.4
			c-0.4,0.2-0.6,0.8-0.3,1.2C27.4,21.6,27.7,21.7,28,21.7z"/>
		<path class="st0" d="M18.1,27.6c0.4-0.2,0.6-0.8,0.3-1.2c-0.2-0.4-0.8-0.6-1.2-0.3l-0.6,0.4c-0.4,0.2-0.6,0.8-0.3,1.2
			c0.2,0.3,0.5,0.4,0.8,0.4c0.1,0,0.3,0,0.4-0.1L18.1,27.6z"/>
		<path class="st0" d="M22.8,22.2c-0.3,0-0.6,0.1-0.8,0.2l-1.4-0.8c-0.4-0.2-1-0.1-1.2,0.3c-0.2,0.4-0.1,1,0.3,1.2l1.3,0.7
			c0,0.9,0.8,1.7,1.7,1.7c0.9,0,1.7-0.8,1.7-1.7c0-0.3-0.1-0.5-0.2-0.8l1.5-2.6c0.2-0.4,0.1-0.8-0.2-1c0.1,0,0.1,0.1,0.2,0.1
			c0.3,0,0.6-0.2,0.8-0.4l0.4-0.6c0.2-0.4,0.1-1-0.3-1.2c-0.4-0.2-1-0.1-1.2,0.3l-0.4,0.6c-0.2,0.3-0.1,0.8,0.1,1
			c-0.4-0.1-0.8,0.1-1,0.4L22.8,22.2C22.8,22.2,22.8,22.2,22.8,22.2z"/>
	</g>
	<path class="st0" d="M16.3,48.3l2.6,3.6c0.9,1.2,2.3,2,3.8,2c0.5,0,0.9-0.4,0.9-0.9c0-0.5-0.4-0.9-0.9-0.9c-0.9,0-1.8-0.5-2.4-1.2
		l-2.6-3.6c-0.3-0.4-0.8-0.5-1.2-0.2C16.1,47.4,16,47.9,16.3,48.3z"/>
	<path class="st0" d="M22.8,19.5c0.5,0,0.9-0.4,0.9-0.9v-1.5c0-0.5-0.4-0.9-0.9-0.9c-0.5,0-0.9,0.4-0.9,0.9v1.5
		C21.9,19.1,22.3,19.5,22.8,19.5z"/>
	<path class="st0" d="M22.8,28.2c-0.5,0-0.9,0.4-0.9,0.9v1.5c0,0.5,0.4,0.9,0.9,0.9c0.5,0,0.9-0.4,0.9-0.9v-1.5
		C23.7,28.6,23.3,28.2,22.8,28.2z"/>
	<path class="st0" d="M18.5,23.8c0-0.5-0.4-0.9-0.9-0.9h-1.5c-0.5,0-0.9,0.4-0.9,0.9c0,0.5,0.4,0.9,0.9,0.9h1.5
		C18.1,24.7,18.5,24.3,18.5,23.8z"/>
	<path class="st0" d="M27.2,23.8c0,0.5,0.4,0.9,0.9,0.9h1.5c0.5,0,0.9-0.4,0.9-0.9c0-0.5-0.4-0.9-0.9-0.9h-1.5
		C27.6,23,27.2,23.4,27.2,23.8z"/>
	<path class="st0" d="M20.3,28.3c-0.4-0.2-1-0.1-1.2,0.3l-0.4,0.6c-0.2,0.4-0.1,1,0.3,1.2c0.1,0.1,0.3,0.1,0.4,0.1
		c0.3,0,0.6-0.2,0.8-0.4l0.4-0.6C20.8,29,20.7,28.5,20.3,28.3z"/>
	<path class="st0" d="M29,26.4l-0.6-0.4c-0.4-0.2-1-0.1-1.2,0.3c-0.2,0.4-0.1,1,0.3,1.2l0.6,0.4c0.1,0.1,0.3,0.1,0.4,0.1
		c0.3,0,0.6-0.2,0.8-0.4C29.6,27.2,29.5,26.7,29,26.4z"/>
	<path class="st0" d="M16.6,21.2l0.6,0.4c0.1,0.1,0.3,0.1,0.4,0.1c0.3,0,0.6-0.2,0.8-0.4c0.2-0.4,0.1-1-0.3-1.2l-0.6-0.4
		c-0.4-0.2-1-0.1-1.2,0.3C16,20.5,16.2,21,16.6,21.2z"/>
	<path class="st0" d="M19.1,19.1c0.2,0.3,0.5,0.4,0.8,0.4c0.1,0,0.3,0,0.4-0.1c0.4-0.2,0.6-0.8,0.3-1.2l-0.4-0.6
		c-0.2-0.4-0.8-0.6-1.2-0.3c-0.4,0.2-0.6,0.8-0.3,1.2L19.1,19.1z"/>
	<path class="st0" d="M26.6,28.6c-0.2-0.4-0.8-0.6-1.2-0.3c-0.4,0.2-0.6,0.8-0.3,1.2l0.4,0.6c0.2,0.3,0.5,0.4,0.8,0.4
		c0.1,0,0.3,0,0.4-0.1c0.4-0.2,0.6-0.8,0.3-1.2L26.6,28.6z"/>
	<path class="st0" d="M28,21.7c0.1,0,0.3,0,0.4-0.1l0.6-0.4c0.4-0.2,0.6-0.8,0.3-1.2c-0.2-0.4-0.8-0.6-1.2-0.3l-0.6,0.4
		c-0.4,0.2-0.6,0.8-0.3,1.2C27.4,21.6,27.7,21.7,28,21.7z"/>
	<path class="st0" d="M18.1,27.6c0.4-0.2,0.6-0.8,0.3-1.2c-0.2-0.4-0.8-0.6-1.2-0.3l-0.6,0.4c-0.4,0.2-0.6,0.8-0.3,1.2
		c0.2,0.3,0.5,0.4,0.8,0.4c0.1,0,0.3,0,0.4-0.1L18.1,27.6z"/>
	<path class="st0" d="M22.8,22.2c-0.3,0-0.6,0.1-0.8,0.2l-1.4-0.8c-0.4-0.2-1-0.1-1.2,0.3c-0.2,0.4-0.1,1,0.3,1.2l1.3,0.7
		c0,0.9,0.8,1.7,1.7,1.7c0.9,0,1.7-0.8,1.7-1.7c0-0.3-0.1-0.5-0.2-0.8l1.5-2.6c0.2-0.4,0.1-0.8-0.2-1c0.1,0,0.1,0.1,0.2,0.1
		c0.3,0,0.6-0.2,0.8-0.4l0.4-0.6c0.2-0.4,0.1-1-0.3-1.2c-0.4-0.2-1-0.1-1.2,0.3l-0.4,0.6c-0.2,0.3-0.1,0.8,0.1,1
		c-0.4-0.1-0.8,0.1-1,0.4L22.8,22.2C22.8,22.2,22.8,22.2,22.8,22.2z"/>
</g>
</svg>
