<?xml version="1.0" encoding="utf-8"?>
<!-- Generator: Adobe Illustrator 21.0.0, SVG Export Plug-In . SVG Version: 6.00 Build 0)  -->
<svg version="1.1" id="레이어_1" xmlns="http://www.w3.org/2000/svg" xmlns:xlink="http://www.w3.org/1999/xlink" x="0px"
	 y="0px" viewBox="0 0 27.7 63" style="enable-background:new 0 0 27.7 63;" xml:space="preserve">
<style type="text/css">
	.st0{fill:#666666;stroke:#666666;stroke-width:0.5;stroke-miterlimit:10;}
</style>
<g>
	<path class="st0" d="M7.2,63h2c0.2,0,0.3-0.1,0.3-0.3l1.7-6.4h9.5l1.7,6.4c0,0.2,0.2,0.3,0.3,0.3h1.7c0.2,0,0.3-0.2,0.3-0.3v-6.3
		c1.6-0.3,2.8-1.7,2.8-3.4V8.7c0-1.3-0.7-2.4-1.8-3c-1.1-1.4-5.5-2.1-9.4-2.1c0-1.9-1.6-3.5-3.6-3.5H4C3,0,2,0.3,1.3,0.9
		C0.5,1.6,0,2.5,0,3.5v46.1c0,2,1.8,3.7,3.8,3.7v-0.3c0,1.8,1.3,3.2,3.1,3.4v6.3C6.9,62.8,7.1,63,7.2,63z M9,61.2H8.1v-3.8h1.9
		L9,61.2z M23.8,61.4h-0.8L22,57.3h1.9V61.4z M3.8,51.8c-1.3,0-2.4-1-2.4-2.2V3.5c0-1.2,1.3-2,2.5-2h8.9c1.2,0,2.1,0.9,2.1,2
		c-2.2,0-4.2,0.2-5.9,0.6C7.3,4.5,6.1,5,5.6,5.7c-1.1,0.6-1.7,1.8-1.7,3V51.8z M4.8,52.9V8.7c0-0.9,0.5-1.8,1.3-2.2
		c0.1,0,0.2-0.1,0.2-0.2c0.1-0.2,0.4-0.4,0.9-0.6c0.5-0.2,1.1-0.4,2-0.6c1.8-0.4,4.1-0.6,6.4-0.6c5.1,0,8.8,0.9,9.4,1.8
		c0,0,0.1,0.1,0.1,0.1c0,0,0.1,0.1,0.1,0.1c0.8,0.4,1.4,1.3,1.4,2.2v44.3c0,1.4-1.1,2.5-2.4,2.5h-17C5.9,55.4,4.8,54.3,4.8,52.9z"/>
</g>
<g>
	<path class="st0" d="M7.3,7.4L7.3,7.4C7,7.4,6.8,7.6,6.8,7.9c0,0.3,0.2,0.5,0.5,0.5h17c0.3,0,0.5-0.2,0.5-0.5
		c0-0.3-0.2-0.5-0.5-0.5H7.3z"/>
</g>
<g>
	<path class="st0" d="M11.5,45.1c0,1.9,1.9,3.5,4.3,3.5c2.4,0,4.3-1.6,4.3-3.5c0-1.9-1.9-3.5-4.3-3.5C13.4,41.6,11.5,43.1,11.5,45.1
		z M19.5,45.1c0,1.6-1.7,2.9-3.7,2.9c-2,0-3.7-1.3-3.7-2.9c0-1.6,1.7-2.9,3.7-2.9C17.9,42.1,19.5,43.5,19.5,45.1z"/>
</g>
<g>
	<path class="st0" d="M17.1,43.3l-1.5,1.5c-0.2,0.2-0.2,0.4,0,0.6c0.1,0.1,0.2,0.1,0.3,0.1c0.1,0,0.2,0,0.3-0.1l1.5-1.5
		c0.2-0.2,0.2-0.4,0-0.6C17.5,43.1,17.2,43.1,17.1,43.3z"/>
</g>
</svg>
