<?xml version="1.0" encoding="utf-8"?>
<!-- Generator: Adobe Illustrator 21.0.0, SVG Export Plug-In . SVG Version: 6.00 Build 0)  -->
<svg version="1.1" id="레이어_1" xmlns="http://www.w3.org/2000/svg" xmlns:xlink="http://www.w3.org/1999/xlink" x="0px"
	 y="0px" viewBox="0 0 52.4 63" style="enable-background:new 0 0 52.4 63;" xml:space="preserve">
<style type="text/css">
	.st0{fill:#311D3A;}
	.st1{fill:#666666;}
</style>
<g>
	<g>
		<path class="st0" d="M12.5,41.8c-1,0.3-2,0.6-3,0.9c-0.2,0.1-0.4,0.1-0.6,0.2L8.6,22.5l0-0.3l0-1l0-0.1l0-2l0-1.1L8.4,13l-0.7,0
			l-0.1,4.8l0,1.1l0,2l0,0.1l0,1l0,0.3L7.4,43.3c-1.3,0.4-2.5,0.8-3.8,1.2c-0.1,4.1,0.5,15.1,0.5,15.2l0,0.1v0.1
			c0,0.3,0.3,0.9,0.6,0.9h7.7c0.3,0,0.4-0.6,0.4-0.9v0l0.1,0c0-0.1,0.7-11.7,0.5-15.6C13.3,43.7,13,42.8,12.5,41.8z M11,52.9
			c0.2,0,0.4,0.2,0.4,0.4c0,0.2-0.2,0.4-0.4,0.4c-0.2,0-0.4-0.2-0.4-0.4C10.5,53.1,10.7,52.9,11,52.9z M6.8,47.1
			c0.2,0,0.4,0.2,0.4,0.4C7.2,47.8,7,48,6.8,48c-0.2,0-0.4-0.2-0.4-0.4C6.4,47.3,6.6,47.1,6.8,47.1z M6.8,51.4
			c-0.3,0-0.6-0.3-0.6-0.6c0-0.3,0.3-0.6,0.6-0.6c0.3,0,0.6,0.3,0.6,0.6C7.4,51.1,7.1,51.4,6.8,51.4z M8.1,49.6
			c-0.3,0-0.5-0.2-0.5-0.5c0-0.3,0.2-0.5,0.5-0.5c0.3,0,0.5,0.2,0.5,0.5C8.6,49.4,8.4,49.6,8.1,49.6z M9.6,55.4
			c-0.3,0-0.5-0.2-0.5-0.5c0-0.3,0.2-0.5,0.5-0.5c0.3,0,0.5,0.2,0.5,0.5C10.1,55.2,9.9,55.4,9.6,55.4z M11,57.2
			c-0.3,0-0.6-0.3-0.6-0.6c0-0.3,0.3-0.6,0.6-0.6c0.3,0,0.6,0.3,0.6,0.6C11.6,56.9,11.3,57.2,11,57.2z"/>
		<path class="st0" d="M27.1,35.1l-0.3-0.4v-8.4h-1.1v8.4L25.5,35c-1.9,3.4-3.7,7.9-3.8,9.1c-0.2,3.8,0.5,15.4,0.5,15.5l0,0.1v0.1
			c0,0.3,0.3,0.9,0.6,0.9h7.7c0.3,0,0.5-0.6,0.5-0.9v0l0,0c0-0.1,0.7-11.7,0.5-15.6C31.3,42.9,29.3,38.5,27.1,35.1z M24.9,47.1
			c0.2,0,0.4,0.2,0.4,0.4c0,0.2-0.2,0.4-0.4,0.4c-0.2,0-0.4-0.2-0.4-0.4C24.4,47.3,24.6,47.1,24.9,47.1z M24.9,51.4
			c-0.3,0-0.6-0.3-0.6-0.6c0-0.3,0.3-0.6,0.6-0.6c0.3,0,0.6,0.3,0.6,0.6C25.5,51.1,25.2,51.4,24.9,51.4z M26.2,49.6
			c-0.3,0-0.5-0.2-0.5-0.5c0-0.3,0.2-0.5,0.5-0.5c0.3,0,0.5,0.2,0.5,0.5C26.7,49.4,26.5,49.6,26.2,49.6z M29,52.9
			c0.2,0,0.4,0.2,0.4,0.4c0,0.2-0.2,0.4-0.4,0.4c-0.2,0-0.4-0.2-0.4-0.4C28.6,53.1,28.8,52.9,29,52.9z M27.7,55.4
			c-0.3,0-0.5-0.2-0.5-0.5c0-0.3,0.2-0.5,0.5-0.5c0.3,0,0.5,0.2,0.5,0.5C28.2,55.2,28,55.4,27.7,55.4z M29,57.2
			c-0.3,0-0.6-0.3-0.6-0.6c0-0.3,0.3-0.6,0.6-0.6c0.3,0,0.6,0.3,0.6,0.6C29.7,56.9,29.4,57.2,29,57.2z"/>
		<path class="st0" d="M45.6,35.1l-0.3-0.4v-8.4h-1.1v8.4L44,35c-1.9,3.4-3.7,7.9-3.8,9.1C40,48,40.8,59.5,40.8,59.6l0.1,0.1v0.1
			c0,0.3,0.2,0.9,0.5,0.9H49c0.3,0,0.5-0.6,0.5-0.9v0l0,0c0-0.1,0.7-11.7,0.5-15.6C49.9,42.9,47.8,38.5,45.6,35.1z M44.7,48
			c0.3,0,0.5,0.2,0.5,0.5c0,0.3-0.2,0.5-0.5,0.5c-0.3,0-0.5-0.2-0.5-0.5C44.2,48.2,44.5,48,44.7,48z M43.4,46.4
			c0.2,0,0.4,0.2,0.4,0.4c0,0.2-0.2,0.4-0.4,0.4c-0.2,0-0.4-0.2-0.4-0.4C43,46.6,43.2,46.4,43.4,46.4z M46.2,56.1
			c-0.3,0-0.5-0.2-0.5-0.5c0-0.3,0.2-0.5,0.5-0.5c0.3,0,0.5,0.2,0.5,0.5C46.7,55.9,46.5,56.1,46.2,56.1z M47.6,57.8
			c-0.3,0-0.6-0.3-0.6-0.6c0-0.3,0.3-0.6,0.6-0.6c0.3,0,0.6,0.3,0.6,0.6C48.2,57.6,47.9,57.8,47.6,57.8z M44.8,54.8
			c-2.3,0-4.1-1.1-4.1-2.6c0-1.5,1.8-2.6,4.1-2.6c2.3,0,4.1,1.1,4.1,2.6C48.9,53.6,47.1,54.8,44.8,54.8z"/>
		<path class="st1" d="M15.7,44c-0.1-2.4-4.1-8.7-5-10V21.8c0.2-0.2,0.4-0.5,0.4-0.8v-2c0-0.6-0.5-1-1.2-1H8.5H6.3
			c-0.6,0-1.2,0.4-1.2,1v2c0,0.3,0.2,0.6,0.4,0.8V34c-0.7,1.3-4.2,7.6-4.3,10C1,47.9,1.7,59.1,1.7,59.8c0,1.7,1.4,3.2,3,3.2h7.7
			c1.6,0,2.9-1.5,2.9-3.2C15.3,59.2,15.9,47.9,15.7,44z M6.2,19h2.3h0.6H10l0,2.1H9.1H8.5H6.2V19z M13.9,59.7l0,0.1
			c0,0.9-0.7,1.8-1.5,1.8H4.7c-0.8,0-1.6-0.9-1.6-1.8l0-0.1c0-0.1-0.7-11.8-0.5-15.6c0.1-1.9,3.1-7.6,4.2-9.6l0-0.2V22.6h1.7h0.9
			v11.8l0.1,0.2c1.3,2,4.7,7.6,4.8,9.5C14.6,47.9,13.9,59.6,13.9,59.7z"/>
		<path class="st1" d="M9,13.6V8.9C9,8.7,9,5,6.4,2.4C4.9,0.8,2.8,0,0,0v1.7c2.3,0,4,0.6,5.2,1.9c2.1,2.1,2.1,5.3,2.1,5.4v2.6
			L9,13.6z"/>
		<path class="st1" d="M19.3,44c-0.2,3.9,0.5,15.1,0.5,15.8c0,1.7,1.4,3.2,3,3.2h7.7c1.6,0,2.9-1.5,2.9-3.2c0-0.7,0.6-11.9,0.4-15.8
			c-0.1-2.4-4.1-8.7-5-10V21.8c0.2-0.2,0.3-0.5,0.3-0.8v-2c0-0.6-0.4-1-1.1-1h-3.6c-0.6,0-1.1,0.4-1.1,1v2c0,0.3,0.1,0.6,0.3,0.8V34
			C22.9,35.3,19.4,41.6,19.3,44z M24.5,19H28l0,2.1h-3.6V19z M24.9,34.5l0.1-0.2V22.6h2.5v11.8l0.1,0.2c1.3,2,4.7,7.6,4.8,9.5
			c0.2,3.9-0.5,15.6-0.5,15.7l0,0.1c0,0.9-0.7,1.8-1.5,1.8h-7.7c-0.8,0-1.6-0.9-1.6-1.8l0-0.1c0-0.1-0.7-11.8-0.5-15.6
			C20.8,42.3,23.7,36.6,24.9,34.5z"/>
		<path class="st1" d="M29.2,10.9V9.5c0-0.8-0.6-1.3-1.4-1.3h-3.2c-0.8,0-1.5,0.5-1.5,1.3v1.4c0,0.7,0.4,1.3,1.1,1.4L23.9,16
			c0,0.1,0,0.2,0.1,0.3c0.1,0.1,0.2,0.2,0.3,0.2h3.8c0.1,0,0.2-0.1,0.3-0.2c0.1-0.1,0.1-0.2,0.1-0.3l-0.2-3.7
			C28.8,12.1,29.2,11.5,29.2,10.9z M24.7,15.7l0.2-3.3h2.8l0.1,3.3H24.7z M28.6,10.9c0,0.4-0.4,0.8-0.8,0.8h-3.2
			c-0.4,0-0.8-0.4-0.8-0.8V9.6c0-0.4,0.4-0.8,0.8-0.8h3.2c0.4,0,0.8,0.4,0.8,0.8V10.9z"/>
		<path class="st1" d="M42.4,18c-0.3,0.2-0.6,0.6-0.6,1v2c0,0.3,0.1,0.6,0.3,0.8V34c-0.7,1.3-4.2,7.6-4.3,10
			c-0.2,3.9,0.5,15.1,0.5,15.8c0,1.7,1.4,3.2,3,3.2H49c1.6,0,2.9-1.5,2.9-3.2c0-0.7,0.7-11.9,0.5-15.8c-0.1-2.4-4.1-8.7-4.9-10V21.8
			c0.1-0.2,0.3-0.5,0.3-0.8v-2c0-0.4-0.3-0.8-0.6-1c0.4-0.3,0.7-0.7,0.7-1.3v-1.4c0-0.8-0.7-1.3-1.5-1.3h-3.3
			c-0.8,0-1.4,0.5-1.4,1.3v1.4C41.6,17.3,41.9,17.7,42.4,18z M42.9,21.2V19h3.6l0,2.1H42.9z M51,44c0.2,3.9-0.5,15.6-0.5,15.7l0,0.1
			c0,0.9-0.7,1.8-1.5,1.8h-7.7c-0.8,0-1.6-0.9-1.6-1.8l0-0.1c0-0.1-0.7-11.8-0.5-15.6c0.1-1.9,3.1-7.6,4.2-9.6l0.1-0.2V22.6H46v11.8
			l0.1,0.2C47.4,36.6,50.9,42.2,51,44z M47.1,16.6c0,0.4-0.4,0.9-0.9,0.9h-3.3c-0.4,0-0.8-0.5-0.8-0.9v-1.3c0-0.4,0.3-0.7,0.8-0.7
			h3.3c0.4,0,0.9,0.2,0.9,0.7V16.6z"/>
		<path class="st1" d="M40.8,52.2c0,1.5,1.8,2.6,4.1,2.6c2.3,0,4.1-1.1,4.1-2.6c0-1.5-1.8-2.6-4.1-2.6
			C42.6,49.6,40.8,50.7,40.8,52.2z M44.8,54.1c-1.8,0-3.4-0.9-3.4-1.9c0-1,1.5-1.9,3.4-1.9c1.8,0,3.4,0.9,3.4,1.9
			C48.2,53.2,46.7,54.1,44.8,54.1z"/>
	</g>
</g>
</svg>
