<?xml version="1.0" encoding="utf-8"?>
<!-- Generator: Adobe Illustrator 21.0.0, SVG Export Plug-In . SVG Version: 6.00 Build 0)  -->
<svg version="1.1" id="레이어_1" xmlns="http://www.w3.org/2000/svg" xmlns:xlink="http://www.w3.org/1999/xlink" x="0px"
	 y="0px" viewBox="0 0 58.6 63" style="enable-background:new 0 0 58.6 63;" xml:space="preserve">
<style type="text/css">
	.st0{fill:#666666;}
	.st1{fill:#EFEFEF;}
	.st2{fill:#6D266B;}
	.st3{fill:#8C3086;}
</style>
<g>
	<path class="st0" d="M50.9,25.2c0,0,5.8,4.5,5.8,11.7c0,0,0.2,9-6.2,22.9c0,0-0.4,1.3-2.4,1.3H38h-1.1h-8.8c-2,0-2.4-1.3-2.4-1.3
		C19.3,46,19.5,37,19.5,37c0-0.2,0-0.5,0-0.7c0.3-6.8,5.8-11,5.8-11s-1.1-2.2-2.4-0.1c-1.8,1.5-5.3,5.2-5.3,11.2
		c0,0-0.2,10,6.8,25.3c0,0,0.5,1.5,2.7,1.5h9.7H38h11.2c2.2,0,2.7-1.5,2.7-1.5c7-15.3,6.8-25.3,6.8-25.3c0-6.1-3.7-9.8-5.4-11.2
		C52,23,50.9,25.2,50.9,25.2z"/>
	<path class="st0" d="M18.5,35.3c0,0,3.6,4.4,10.2,3.6c6.6-0.7,7.3-5.1,18.2-2.2c10.9,2.9,10.2,0,10.2,0l-0.7,9.5l-3.6,10.2
		l-2.2,5.1L47,62.3H26.6l-2.2-2.2l-5.1-13.8L18.5,35.3z"/>
	<g>
		<g>
			<path class="st1" d="M21.8,21.3L21.8,21.3C21.9,21.3,21.9,21.3,21.8,21.3C21.8,21.3,21.8,21.3,21.8,21.3z"/>
			<path class="st1" d="M22.2,20.5l-1.1-2.4c-0.1-0.1-0.2-0.3-0.3-0.3c-0.2-0.1-0.3-0.1-0.5,0l0,0c-0.1,0.1-0.3,0.2-0.3,0.3
				c-0.1,0.2-0.1,0.3,0,0.5l0,0l-2.4,1.1c-0.6-1-1.5-2-2.5-2.7l2.4-6.2c0.3,0.1,0.6,0.1,0.8,0c0.3-0.1,0.5-0.3,0.6-0.6
				c0.1-0.3,0.1-0.6,0-0.8c-0.1-0.3-0.3-0.5-0.6-0.6L13.8,7c-0.3-0.1-0.6-0.1-0.8,0c-0.3,0.1-0.5,0.3-0.6,0.6
				c-0.1,0.3-0.1,0.6,0,0.8C12.6,8.7,12.8,8.9,13,9l-2.4,6.2l0,0c-4.2-0.5-8.3,1.8-10,6C-1.3,26.1,1.2,31.5,6,33.4
				c4.9,1.9,10.4-0.5,12.3-5.4c0.8-2,0.8-4.1,0.3-6L21,21l-0.7-1.6L21,21c0.1,0.1,0.2,0.3,0.3,0.3c0.2,0.1,0.3,0,0.5,0
				c0.1-0.1,0.3-0.2,0.3-0.3C22.2,20.8,22.2,20.6,22.2,20.5z"/>
		</g>
		<g>
			<g>

					<ellipse transform="matrix(0.3636 -0.9315 0.9315 0.3636 -3.7552 35.4602)" class="st0" cx="24.1" cy="20.5" rx="0.4" ry="0.4"/>
				<g>

						<ellipse transform="matrix(0.3636 -0.9315 0.9315 0.3636 0.4793 33.4963)" class="st0" cx="24.8" cy="16.4" rx="1.2" ry="1.2"/>
				</g>
			</g>
		</g>
		<g>
			<path class="st2" d="M16.8,27.6c-0.2,0.6-0.5,1.1-0.9,1.6l-9-3.5L7.6,24c0.3-0.1,0.8-0.3,1.4-0.3c1.1-0.1,2.7,0.1,4.8,0.9
				C15.8,25.4,17.2,26.7,16.8,27.6z"/>
			<path class="st3" d="M12.6,27.6c-1.2-0.6-2.5-1.5-3.1-3c-1.2-2.8-4.5-4.1-7.4-2.9C0.5,25.8,2.5,30.4,6.6,32
				c4,1.6,8.6-0.4,10.2-4.4C16.4,28.4,14.7,28.6,12.6,27.6z"/>
		</g>
		<g>
			<ellipse transform="matrix(0.3636 -0.9315 0.9315 0.3636 -4.6756 20.862)" class="st3" cx="12.9" cy="13.9" rx="0.5" ry="0.5"/>
			<ellipse transform="matrix(0.3636 -0.9315 0.9315 0.3636 -8.6127 23.3095)" class="st3" cx="12.8" cy="18" rx="1.2" ry="1.2"/>
			<ellipse transform="matrix(0.3636 -0.9315 0.9315 0.3636 -14.9823 17.8678)" class="st3" cx="5.6" cy="19.9" rx="0.6" ry="0.6"/>
		</g>
		<g>
			<g>

					<ellipse transform="matrix(0.3636 -0.9315 0.9315 0.3636 -21.2317 21.8887)" class="st1" cx="5.4" cy="26.5" rx="0.9" ry="0.9"/>

					<ellipse transform="matrix(0.3636 -0.9315 0.9315 0.3636 -22.9729 27.5111)" class="st1" cx="8.6" cy="30.6" rx="0.4" ry="0.4"/>

					<ellipse transform="matrix(0.3636 -0.9315 0.9315 0.3636 -20.7048 29.8048)" class="st1" cx="11.5" cy="30.1" rx="0.6" ry="0.6"/>
			</g>
		</g>
		<g>
			<g>
				<ellipse transform="matrix(0.3636 -0.9315 0.9315 0.3636 8.5743 14.8753)" class="st0" cx="15.2" cy="1.2" rx="1.2" ry="1.2"/>
				<ellipse transform="matrix(0.3636 -0.9315 0.9315 0.3636 5.1154 19.3675)" class="st0" cx="16.7" cy="5.9" rx="0.7" ry="0.7"/>
				<ellipse transform="matrix(0.3636 -0.9315 0.9315 0.3636 8.4118 22.4894)" class="st0" cx="20.7" cy="5.1" rx="0.5" ry="0.5"/>
			</g>
		</g>
	</g>
	<path class="st0" d="M56.8,28.8c0.7,0.1,0.7-0.7,0.7-0.7l0.7-6.1c0.3-1.2-0.4-1.5-0.4-1.5l-11.5-5.2L46,15.2L34.6,9.9
		c0,0-0.7-0.3-1.4,0.7L29,15.1c0,0-0.8,0.7,0.3,1.2L56.8,28.8z"/>
</g>
</svg>
