<?xml version="1.0" encoding="utf-8"?>
<!-- Generator: Adobe Illustrator 21.0.0, SVG Export Plug-In . SVG Version: 6.00 Build 0)  -->
<svg version="1.1" id="레이어_1" xmlns="http://www.w3.org/2000/svg" xmlns:xlink="http://www.w3.org/1999/xlink" x="0px"
	 y="0px" viewBox="0 0 56.3 63" style="enable-background:new 0 0 56.3 63;" xml:space="preserve">
<style type="text/css">
	.st0{fill:#666666;}
	.st1{fill:#FFFFFF;stroke:#FFFFFF;stroke-width:0.3;stroke-miterlimit:10;}
	.st2{fill:#C9C9C9;stroke:#C9C9C9;stroke-width:0.3;stroke-miterlimit:10;}
</style>
<path class="st0" d="M56.3,26.3c0-8.4-5-13.5-7.4-15.4c0.9-0.3,0.4-1.3,0.4-1.3l-2.7-8C46.3,0,45.3,0,45.3,0H28h-0.3H10.3
	c0,0-1,0-1.3,1.7l-2.7,8c0,0-0.7,1.3,1,1.3C4.9,13,0,18.1,0,26.3C0,26.3-0.3,40,9.3,61c0,0,0.7,2,3.7,2h13.3H28h15.3
	c3,0,3.7-2,3.7-2C56.7,40,56.3,26.3,56.3,26.3z M45.2,58.7c0,0-0.6,1.8-3.3,1.8H28h-1.5H14.4c-2.7,0-3.3-1.8-3.3-1.8
	c-8.8-19-8.4-31.4-8.4-31.4c0-0.3,0-0.6,0-1c0.5-9.3,7.8-14.8,7.8-14.8h15.9h0h1.2H28h0h17.8c0,0,7.8,5.8,7.8,15.8
	C53.7,27.3,54,39.7,45.2,58.7z"/>
<path class="st0" d="M1.4,25c0,0,5,6,14,5s10-7,25-3s14,0,14,0l-1,13l-5,14l-3,7l-5,1h-28l-3-3l-7-19L1.4,25z"/>
<g>
	<path class="st1" d="M17.6,43.7c0.2-0.2,0.2-0.4,0-0.6c-0.2-0.2-0.4-0.2-0.6,0l-1.9,1.7c0.5-6.6,6-11.8,12.7-11.8
		c4.9,0,9.3,2.7,11.5,7.1c0.1,0.2,0.4,0.3,0.6,0.2c0.2-0.1,0.3-0.4,0.2-0.6c-2.3-4.7-7-7.6-12.2-7.6c-7.1,0-13,5.5-13.6,12.4
		l-1.6-2.1c-0.1-0.2-0.4-0.2-0.6-0.1c-0.2,0.1-0.2,0.4-0.1,0.6l2.3,3c0,0,0,0,0,0c0,0,0,0,0,0c0,0,0,0,0,0c0,0,0.1,0,0.1,0.1
		c0,0,0,0,0,0c0,0,0,0,0,0c0.1,0,0.1,0,0.2,0c0,0,0.1,0,0.1,0c0,0,0,0,0,0c0,0,0,0,0,0c0,0,0,0,0.1,0c0,0,0,0,0,0c0,0,0,0,0,0
		L17.6,43.7z"/>
	<path class="st2" d="M43.6,48.5l-2.3-3c0,0,0,0,0,0c0,0,0,0,0,0c0,0,0,0,0,0c0,0,0,0-0.1,0c0,0,0,0-0.1,0c0,0,0,0,0,0
		c0,0,0,0-0.1,0c0,0,0,0-0.1,0c0,0,0,0,0,0c0,0,0,0,0,0c0,0,0,0,0,0c0,0,0,0-0.1,0c0,0,0,0,0,0c0,0,0,0-0.1,0c0,0,0,0,0,0
		c0,0,0,0,0,0c0,0,0,0,0,0l-2.6,2.4c-0.2,0.2-0.2,0.4,0,0.6c0.1,0.1,0.2,0.1,0.3,0.1c0.1,0,0.2,0,0.3-0.1l1.9-1.7
		c-0.5,6.6-6,11.8-12.7,11.8c-4.9,0-9.3-2.7-11.5-7.1c-0.1-0.2-0.4-0.3-0.6-0.2c-0.2,0.1-0.3,0.4-0.2,0.6c2.3,4.7,7,7.6,12.2,7.6
		c7.1,0,13-5.5,13.6-12.4l1.6,2.1c0.1,0.1,0.2,0.2,0.3,0.2c0.1,0,0.2,0,0.3-0.1C43.7,49,43.8,48.7,43.6,48.5z"/>
	<g>
		<path class="st1" d="M21.2,42.6h14.1c1.1,0,2-0.9,2-2c0-1.1-0.9-2-2-2H19.7c-0.2,0-0.4,0.2-0.4,0.4s0.2,0.4,0.4,0.4h15.6
			c0.6,0,1.1,0.5,1.1,1.1c0,0.6-0.5,1.1-1.1,1.1H21.2c-1.1,0-2,0.9-2,2c0,1.1,0.9,2,2,2h14.1c0.6,0,1.1,0.5,1.1,1.1
			c0,0.6-0.5,1.1-1.1,1.1H21.2c-1.1,0-2,0.9-2,2c0,1.1,0.9,2,2,2h15.6c0.2,0,0.4-0.2,0.4-0.4c0-0.2-0.2-0.4-0.4-0.4H21.2
			c-0.6,0-1.1-0.5-1.1-1.1c0-0.6,0.5-1.1,1.1-1.1h14.1c1.1,0,2-0.9,2-2c0-1.1-0.9-2-2-2H21.2c-0.6,0-1.1-0.5-1.1-1.1
			C20.1,43.2,20.6,42.6,21.2,42.6z"/>
		<path class="st2" d="M18.2,43c0.2-0.2,0.2-0.4,0-0.6c-0.2-0.2-0.4-0.2-0.6,0l-1.9,1.7c0.5-6.6,6-11.8,12.7-11.8
			c4.9,0,9.3,2.7,11.5,7.1c0.1,0.2,0.4,0.3,0.6,0.2c0.2-0.1,0.3-0.4,0.2-0.6c-2.3-4.7-7-7.6-12.2-7.6c-7.1,0-13,5.5-13.6,12.4
			l-1.6-2.1c-0.1-0.2-0.4-0.2-0.6-0.1c-0.2,0.1-0.2,0.4-0.1,0.6l2.3,3c0,0,0,0,0,0c0,0,0,0,0,0c0,0,0,0,0,0c0,0,0.1,0,0.1,0.1
			c0,0,0,0,0,0c0,0,0,0,0,0c0.1,0,0.1,0,0.2,0c0,0,0.1,0,0.1,0c0,0,0,0,0,0c0,0,0,0,0,0c0,0,0,0,0.1,0c0,0,0,0,0,0c0,0,0,0,0,0
			L18.2,43z"/>
		<path class="st1" d="M44.3,47.9l-2.3-3c0,0,0,0,0,0c0,0,0,0,0,0c0,0,0,0,0,0c0,0,0,0-0.1,0c0,0,0,0-0.1,0c0,0,0,0,0,0
			c0,0,0,0-0.1,0c0,0,0,0-0.1,0c0,0,0,0,0,0c0,0,0,0,0,0c0,0,0,0,0,0c0,0,0,0-0.1,0c0,0,0,0,0,0c0,0,0,0-0.1,0c0,0,0,0,0,0
			c0,0,0,0,0,0c0,0,0,0,0,0l-2.6,2.4c-0.2,0.2-0.2,0.4,0,0.6c0.1,0.1,0.2,0.1,0.3,0.1c0.1,0,0.2,0,0.3-0.1l1.9-1.7
			c-0.5,6.6-6,11.8-12.7,11.8c-4.9,0-9.3-2.7-11.5-7.1c-0.1-0.2-0.4-0.3-0.6-0.2c-0.2,0.1-0.3,0.4-0.2,0.6c2.3,4.7,7,7.6,12.2,7.6
			c7.1,0,13-5.5,13.6-12.4l1.6,2.1c0.1,0.1,0.2,0.2,0.3,0.2c0.1,0,0.2,0,0.3-0.1C44.4,48.3,44.4,48.1,44.3,47.9z"/>
	</g>
</g>
</svg>
