<?xml version="1.0" encoding="utf-8"?>
<!-- Generator: Adobe Illustrator 21.0.0, SVG Export Plug-In . SVG Version: 6.00 Build 0)  -->
<svg version="1.1" id="레이어_1" xmlns="http://www.w3.org/2000/svg" xmlns:xlink="http://www.w3.org/1999/xlink" x="0px"
	 y="0px" viewBox="0 0 45 63" style="enable-background:new 0 0 45 63;" xml:space="preserve">
<style type="text/css">
	.st0{fill:#666666;}
</style>
<g>
	<g>
		<path class="st0" d="M41.5,47.3c1.9,0,3.5-1.5,3.5-3.4c0-1.9-1.5-3.5-3.5-3.5h0c-1.2,0-2.3,0.6-2.9,1.5c-0.5-1.3-1.8-2.3-3.3-2.3
			h0c-0.7,0-1.4,0.2-1.9,0.6c0.1-2-0.1-3.6-0.6-4.9c1.2,1.8,2.7,1.7,2.8,1.7c0.3,0,0.6-0.3,0.5-0.7c0-0.4-0.8-10.1-1.4-13.6
			c-0.3-1.5-1.5-2.8-3.7-3.7c-5.8-2.5-16.5-8.1-17.7-8.7l-8.5-10C4.6,0,4.2-0.1,4,0.1C3.7,0.4,3.7,0.8,3.9,1l0.2,0.3l8.4,9.8
			c0.1,0.1,0.1,0.1,0.2,0.1c0.1,0.1,11.7,6.1,17.8,8.8c1.7,0.8,2.8,1.7,3,2.8c0.5,2.8,1.1,10.2,1.3,12.7c-0.6-0.3-1.5-1.2-2-3.7
			c0,0,0,0,0,0L31,24.6c0,0,0,0,0,0c0,0,0,0,0,0c0,0,0,0,0-0.1c0,0,0,0,0,0c0,0,0,0,0-0.1c0,0,0,0,0,0c0,0,0,0,0,0c0,0,0,0-0.1-0.1
			c0,0,0,0,0,0c0,0,0,0-0.1,0c0,0,0,0,0,0c0,0,0,0-0.1,0c0,0,0,0-0.1,0c0,0,0,0-0.1,0c0,0,0,0-0.1,0c0,0,0,0-0.1,0c0,0,0,0-0.1,0
			c0,0,0,0,0,0l-6.6,1c-0.4-0.4-1-1-0.9-1.6c0.1-0.3-0.2-0.7-0.5-0.7c-0.3-0.1-0.7,0.2-0.7,0.5c-0.3,1.4,1.1,2.6,1.5,2.9l5,6.9
			c0,0,0,0,0,0c0.1,0.1,2,2.4,1,4.1l-9.5-9.1c0,0-0.1-0.1-0.1-0.1c-3.1-1.7-11.1-6.8-10.6-10.6c0-0.2-0.1-0.4-0.2-0.5L1,10.4
			c-0.1,0-0.1-0.1-0.2-0.1c-0.2-0.1-0.5,0-0.7,0.2c-0.2,0.3-0.2,0.6,0.1,0.9l7.5,6.3c-0.1,2.2,1.8,4.8,5.5,7.7
			c0.8,0.6,1.5,1.1,2.2,1.6c-0.4,0.4-0.8,1-0.7,1.7c0,0.7,0.5,1.4,1.3,1.9c0.1,0.1,0.2,0.1,0.3,0.1c0.1,0,0.1,0,0.2,0l0.3-0.1
			c-0.1,0.6-0.2,1.4,0.2,2.1c0.2,0.5,0.7,1.1,1.8,1.4c0.1,0,0.1,0,0.2,0c0.1,0,0.2,0,0.3-0.1l2.9-1.8l6.7,6.4
			c0.1,0.1,0.3,0.2,0.4,0.2c0.2,0,0.3-0.1,0.4-0.2c1.7-1.7,1-4,0.1-5.4c1,1.2,2.4,3.7,1.9,7.4c-0.6-0.7-1.5-1.1-2.5-1.2h0
			c-1.5,0-2.8,1-3.3,2.3c-0.6-0.9-1.7-1.6-2.9-1.6h0c-1.9,0-3.5,1.5-3.5,3.4c0,1.9,1.5,3.5,3.5,3.5h0c0.3,0,0.5,0,0.7-0.1
			c-0.6,0.6-1,1.5-1,2.4c0,1.8,1.4,3.3,3.2,3.5c-0.1,0.3-0.2,0.7-0.2,1.1c0,0.9,0.4,1.9,1,2.5c0.7,0.7,1.5,1.1,2.5,1.1h0
			c0.1,0,0.2,0,0.3,0c-0.4,0.5-0.6,1.2-0.6,1.9c0,1.9,1.5,3.5,3.5,3.5h0c1.9,0,3.5-1.5,3.5-3.4c0-0.7-0.2-1.4-0.6-2
			c1.9-0.1,3.4-1.6,3.4-3.4c0-0.4,0-0.7-0.1-1c0,0,0,0,0,0h0c1.9,0,3.5-1.6,3.5-3.5c0-0.9-0.3-1.7-0.9-2.4
			C41.2,47.3,41.4,47.3,41.5,47.3L41.5,47.3z M16.4,29.4c-0.3-0.2-0.5-0.5-0.5-0.7c0-0.4,0.3-0.8,0.6-1c0.8,0.5,1.4,0.9,1.9,1.1
			L16.4,29.4z M18.8,32.8c-0.3-0.1-0.6-0.3-0.7-0.6c-0.3-0.6,0-1.6,0.1-2.1l1.3-0.4l1.7,1.6L18.8,32.8z M38.2,45
			c0.1,0.4,0.4,0.8,0.6,1.1c-0.1,0-0.2,0-0.4,0h0c-1.1,0-2,0.5-2.7,1.3c0-0.3-0.1-0.6-0.2-0.8C36.7,46.4,37.6,45.9,38.2,45z
			 M35.3,41.1c1.1,0,2,0.9,2,2c0,1.1-0.9,1.9-2,1.9h0c-1.1,0-2-0.9-2-2C33.3,41.9,34.2,41.1,35.3,41.1z M35.1,50.7
			C35.1,50.7,35.1,50.7,35.1,50.7L35.1,50.7c-0.4,0-0.7,0-1.1,0.1c0.3-0.2,0.7-0.5,0.9-0.8C35,50.3,35.1,50.5,35.1,50.7z M24.6,26.2
			l3.5-0.5l-2.5,2L24.6,26.2z M29.7,30.8c-0.4-0.3-0.9-0.2-1.2,0.2c-0.1,0.1-0.1,0.2-0.1,0.3l-2-2.7l3.6-2.8l1.6,6.2
			c0.1,0.6,0.2,1,0.4,1.5C31,31.8,29.8,30.9,29.7,30.8z M32.3,45.9c1.1,0,2,0.9,2,2c0,1.1-0.9,1.9-2,1.9h0c-1.1,0-2-0.9-2-1.9
			C30.3,46.7,31.2,45.9,32.3,45.9z M32.1,52.3c-0.1-0.3-0.3-0.5-0.5-0.7c-0.6-0.6-1.3-1-2.1-1.1c0.1-0.2,0.1-0.4,0.1-0.6
			c0.6,0.8,1.6,1.3,2.7,1.3h0c0.3,0,0.7,0,1-0.1C32.8,51.4,32.4,51.8,32.1,52.3z M32.1,56.1c-0.1,0-0.1,0-0.2,0C32,56,32,56,32,55.9
			C32.1,56,32.1,56,32.1,56.1z M29.1,41c1.1,0,2,0.9,2,2c0,1.1-0.9,2-2,2h0c-0.5,0-1-0.2-1.4-0.6c-0.4-0.4-0.6-0.9-0.6-1.4
			C27.1,41.9,28,41,29.1,41z M26.1,44.9c0.6,1,1.7,1.6,2.9,1.6c0,0,0,0,0,0c0,0,0,0,0,0h0c-0.1,0.3-0.2,0.6-0.2,0.9
			c-0.6-0.8-1.6-1.3-2.7-1.3h0c-0.3,0-0.5,0-0.7,0.1C25.7,45.8,26,45.4,26.1,44.9z M22.9,45.6L22.9,45.6c-1.1,0-2-0.9-2-1.9
			c0-1.1,0.9-1.9,2-1.9c1.1,0,2,0.9,2,1.9C24.8,44.7,23.9,45.6,22.9,45.6z M26.1,51.4L26.1,51.4c-1.1,0-2-0.9-2-2
			c0-1.1,0.9-1.9,2-1.9c1.1,0,2,0.9,2,2c0,0.6-0.3,1.1-0.7,1.5c-0.1,0.1-0.3,0.2-0.4,0.3C26.7,51.4,26.4,51.4,26.1,51.4z M29.1,56.1
			L29.1,56.1c-0.5,0-1-0.2-1.4-0.6c-0.4-0.4-0.6-0.9-0.6-1.4c0-1.1,0.9-2,2-2c0.5,0,1,0.2,1.4,0.6c0.4,0.4,0.6,0.9,0.6,1.4
			C31,55.2,30.1,56.1,29.1,56.1z M32.3,61.5L32.3,61.5c-1.1,0-2-0.9-2-2c0-1.1,0.9-1.9,2-1.9c1.1,0,2,0.9,2,2
			C34.2,60.6,33.3,61.5,32.3,61.5z M35.1,56.1L35.1,56.1c-1.1,0-2-0.9-2-2c0-1.1,0.9-1.9,2-1.9c1.1,0,2,0.9,2,2
			C37,55.2,36.1,56.1,35.1,56.1z M38.5,51.6L38.5,51.6c-1.1,0-2-0.9-2-2c0-1.1,0.9-2,2-2c0.5,0,1,0.2,1.4,0.6
			c0.4,0.4,0.6,0.9,0.6,1.4C40.4,50.7,39.5,51.6,38.5,51.6z M39.5,43.8c0-1.1,0.9-1.9,2-1.9c1.1,0,2,0.9,2,2c0,1.1-0.9,1.9-2,1.9h0
			C40.4,45.7,39.5,44.9,39.5,43.8z"/>
	</g>
</g>
</svg>
