<?xml version="1.0" encoding="utf-8"?>
<!-- Generator: Adobe Illustrator 21.0.0, SVG Export Plug-In . SVG Version: 6.00 Build 0)  -->
<svg version="1.1" id="레이어_1" xmlns="http://www.w3.org/2000/svg" xmlns:xlink="http://www.w3.org/1999/xlink" x="0px"
	 y="0px" viewBox="0 0 73.7 63" style="enable-background:new 0 0 73.7 63;" xml:space="preserve">
<style type="text/css">
	.st0{fill:#666666;}
</style>
<g>
	<g>
		<path class="st0" d="M57.5,41.7l7.2,20.9c0.1,0.2,0.3,0.4,0.6,0.4h4.1c0.3,0,0.6-0.3,0.6-0.6V41.7h2.8c0.5,0,0.9-0.4,0.9-0.9V20.7
			c0-0.5-0.4-0.9-0.9-0.9h-47v-9.1c0-0.2-0.1-0.4-0.2-0.5c-0.1-0.1-0.3-0.2-0.5-0.2L5.2,10c-0.3,0-0.5,0.2-0.7,0.4
			c-0.1,0.3-0.1,0.6,0.1,0.8l7.6,8.6H0.9c-0.5,0-0.9,0.4-0.9,0.9v20.1c0,0.5,0.4,0.9,0.9,0.9h3.5v20.7C4.4,62.7,4.7,63,5,63h4.5
			c0.3,0,0.5-0.2,0.6-0.4l7-20.9h12.7V52L25,52c-0.2,0-0.5,0.1-0.6,0.3c-0.1,0.2-0.2,0.4-0.1,0.7l2.9,9.5c0.1,0.3,0.4,0.5,0.7,0.5
			h19.7c0.3,0,0.6-0.2,0.7-0.5l2.9-9.5c0.1-0.2,0-0.5-0.1-0.7C51,52.1,50.8,52,50.5,52l-5,0V41.7H57.5z M68.9,61.8h-3.1l-7-20.1
			h10.1V61.8z M6.8,11.5l17.6,0v8.1H13.9L6.8,11.5z M9.1,61.8H5.6V41.7h10.3L9.1,61.8z M49.5,53.5l-2.5,8.1H28.5L26,53.5l14.8,0
			L49.5,53.5z M30.5,52V41.7h14.2V52l-3.9,0L30.5,52z M1.8,39.9V21.6h70.2v18.4H1.8z"/>
	</g>
	<g>
		<path class="st0" d="M52.8,35.4c0.1,0.1,0.2,0.2,0.4,0.2c0.1,0,0.3,0,0.4-0.1l1-0.9h12.9c0.3,0,0.5-0.2,0.5-0.5v-6.2
			c0-0.3-0.2-0.5-0.5-0.5h-5.4l0.7-0.7c0.2-0.2,0.2-0.5,0-0.7c-0.2-0.2-0.5-0.2-0.7,0l-1.5,1.4H49.8l0.7-0.7c0.2-0.2,0.2-0.5,0-0.7
			c-0.2-0.2-0.5-0.2-0.7,0l-1.5,1.4H37.7l0.7-0.7c0.2-0.2,0.2-0.5,0-0.7c-0.2-0.2-0.5-0.2-0.7,0l-1.5,1.4H25.6l0.7-0.7
			c0.2-0.2,0.2-0.5,0-0.7c-0.2-0.2-0.5-0.2-0.7,0l-1.5,1.4H13.6c-0.3,0-0.5,0.2-0.5,0.5V34c0,0.3,0.2,0.5,0.5,0.5h3.1l-0.2,0.2
			c-0.2,0.2-0.2,0.5,0,0.7c0.1,0.1,0.2,0.2,0.4,0.2c0.1,0,0.3,0,0.4-0.1l1-0.9h10.6l-0.2,0.2c-0.2,0.2-0.2,0.5,0,0.7
			c0.1,0.1,0.2,0.2,0.4,0.2c0.1,0,0.3,0,0.4-0.1l1-0.9h10.6l-0.2,0.2c-0.2,0.2-0.2,0.5,0,0.7c0.1,0.1,0.2,0.2,0.4,0.2
			c0.1,0,0.3,0,0.4-0.1l1-0.9H53l-0.2,0.2C52.6,34.9,52.6,35.2,52.8,35.4z M60.8,28.3h6v5.1H55.5L60.8,28.3z M17.8,33.5h-3.7v-5.1h9
			L17.8,33.5z M29.9,33.5H19.2l5.3-5.1h10.6L29.9,33.5z M41.9,33.5H31.3l5.3-5.1h10.6L41.9,33.5z M43.4,33.5l5.3-5.1h10.6L54,33.5
			H43.4z"/>
	</g>
	<g>
		<polygon class="st0" points="35.1,45.1 37.8,47.7 40.4,45.1 43.1,42.6 37.8,42.6 32.5,42.6 		"/>
	</g>
	<g>
		<path class="st0" d="M2.2,7.2c-0.6,0-1.1,0.5-1.1,1.1c0,0.6,0.5,1.1,1.1,1.1h22.9c0.6,0,1.1-0.5,1.1-1.1c0-0.6-0.5-1.1-1.1-1.1
			H2.2z"/>
	</g>
	<g>
		<polygon class="st0" points="12.9,2.6 15.5,5.1 18.2,2.6 20.8,0 15.5,0 10.3,0 		"/>
	</g>
</g>
</svg>
