<?xml version="1.0" encoding="utf-8"?>
<!-- Generator: Adobe Illustrator 21.0.0, SVG Export Plug-In . SVG Version: 6.00 Build 0)  -->
<svg version="1.1" id="레이어_1" xmlns="http://www.w3.org/2000/svg" xmlns:xlink="http://www.w3.org/1999/xlink" x="0px"
	 y="0px" viewBox="0 0 63.5 63.5" style="enable-background:new 0 0 63.5 63.5;" xml:space="preserve">
<style type="text/css">
	.st0{fill:#666666;stroke:#666666;stroke-width:0.5;stroke-miterlimit:10;}
</style>
<g>
	<g>
		<g>
			<g>

					<rect x="27.4" y="18.5" transform="matrix(0.8574 -0.5146 0.5146 0.8574 -5.6905 18.3516)" class="st0" width="5.7" height="2"/>
			</g>
			<g>

					<rect x="40.5" y="34.2" transform="matrix(0.8944 -0.4473 0.4473 0.8944 -11.3492 22.3193)" class="st0" width="2.2" height="2"/>
			</g>
		</g>
		<g>
			<g>
				<path class="st0" d="M52.4,40.6c-0.2,0-0.3,0-0.4-0.1l-9.8-4.9c-0.3-0.2-0.5-0.5-0.5-0.9v-5.9h2v5.3l8.9,4.4l8.9-4.4V23.5
					L52,18.8l0.9-1.8l9.8,4.9c0.3,0.2,0.5,0.5,0.5,0.9v11.8c0,0.4-0.2,0.7-0.5,0.9l-9.8,4.9C52.7,40.6,52.6,40.6,52.4,40.6z"/>
			</g>
		</g>
		<g>
			<g>
				<path class="st0" d="M48.9,20.8L48,19.1l3.4-1.7V6.8l-8.9-4.4l-8.9,4.4v10.6l3.4,1.7l-0.9,1.8l-3.9-2c-0.3-0.2-0.5-0.5-0.5-0.9
					V6.2c0-0.4,0.2-0.7,0.5-0.9l9.8-4.9c0.3-0.1,0.6-0.1,0.9,0l9.8,4.9c0.3,0.2,0.5,0.5,0.5,0.9V18c0,0.4-0.2,0.7-0.5,0.9L48.9,20.8
					z"/>
			</g>
		</g>
		<g>
			<g>
				<rect x="16" y="14" class="st0" width="7.9" height="2"/>
			</g>
			<g>
				<path class="st0" d="M19.9,63.3c-10.9,0-19.7-8.8-19.7-19.7c0-9,6.3-17.2,14.8-19.5v-8.2c-1.7-0.4-3-2-3-3.8
					c0-2.2,1.8-3.9,3.9-3.9h7.9c2.2,0,3.9,1.8,3.9,3.9c0,1.8-1.3,3.4-3,3.8v8.2c8.5,2.3,14.8,10.5,14.8,19.5
					C39.6,54.4,30.8,63.3,19.9,63.3z M16,10.1c-1.1,0-2,0.9-2,2s0.9,2,2,2c0.5,0,1,0.4,1,1v9.8c0,0.5-0.3,0.9-0.8,1
					c-8,1.8-14,9.4-14,17.7c0,9.8,7.9,17.7,17.7,17.7c9.8,0,17.7-7.9,17.7-17.7c0-8.3-6-16-14-17.7c-0.5-0.1-0.8-0.5-0.8-1V15
					c0-0.5,0.4-1,1-1c1.1,0,2-0.9,2-2s-0.9-2-2-2H16z"/>
			</g>
			<g>
				<path class="st0" d="M7.1,43.6h-2c0-8.1,6.6-14.8,14.8-14.8v2C12.9,30.8,7.1,36.5,7.1,43.6z"/>
			</g>
		</g>
		<g>
			<path class="st0" d="M42.6,29.8c-4.5,0-6.9-3.5-6.9-6.9c0-2.8,1.6-4.9,3.2-7c1.4-1.9,2.8-3.7,2.8-5.8c0-0.5,0.4-1,1-1
				c0.5,0,1,0.4,1,1c0,2.1,1.3,3.9,2.8,5.8c1.5,2.1,3.2,4.2,3.2,7C49.5,26.3,47.1,29.8,42.6,29.8z M42.6,13.8
				C42,15,41.2,16,40.4,17.1c-1.4,1.9-2.8,3.7-2.8,5.8c0,2.4,1.5,4.9,4.9,4.9c3.4,0,4.9-2.6,4.9-4.9c0-2.1-1.3-3.9-2.8-5.8
				C44,16,43.2,15,42.6,13.8z"/>
		</g>
		<g>
			<path class="st0" d="M19.9,58.3c-8.1,0-14.8-6.6-14.8-14.8h2c0,7.1,5.7,12.8,12.8,12.8c6.7,0,12.3-5.2,12.8-11.8H11.1v-2h22.6
				c0.5,0,1,0.4,1,1C34.7,51.7,28.1,58.3,19.9,58.3z"/>
		</g>
	</g>
</g>
</svg>
