<?xml version="1.0" encoding="utf-8"?>
<!-- Generator: Adobe Illustrator 21.0.0, SVG Export Plug-In . SVG Version: 6.00 Build 0)  -->
<svg version="1.1" id="레이어_1" xmlns="http://www.w3.org/2000/svg" xmlns:xlink="http://www.w3.org/1999/xlink" x="0px"
	 y="0px" viewBox="0 0 68.5 63" style="enable-background:new 0 0 68.5 63;" xml:space="preserve">
<style type="text/css">
	.st0{fill:#8C3086;}
	.st1{fill:#666666;}
</style>
<g>
	<g>
		<path class="st0" d="M65.3,34.2V27c-7.3,0-27.2-0.1-29.8-0.2c-0.9,0.5-1.8,0.6-2.7,1H17.6v1.3h14.8l0.5,0.4
			c4.2,2.8,9.8,5.9,11.4,6c0.6,0,1.4,0.1,2.4,0.1c6.1,0,17.2-0.7,17.3-0.7l0.1-0.1h0.1C64.7,34.7,65.3,34.6,65.3,34.2z"/>
		<path class="st0" d="M3.9,15L3.9,15L4,15c0.1,0,11.2,0.6,17.3,0.6c1,0,1.8,0,2.4,0c1.6-0.1,7.1-3.2,11.4-6l0.5-0.4h15.2V8.1H35.3
			c-0.8-0.5-1.6-0.6-2.4-1C30.2,7.2,10.4,7.2,3.2,7.2v7.2C3.2,14.8,3.5,15,3.9,15z"/>
		<path class="st0" d="M33.4,46.6c-2.6,0.1-22.4,0.2-29.6,0.2V54c0,0.3,0.3,0.6,0.7,0.6h0.1l0.1,0c0.1,0,11.2,0.6,17.3,0.6
			c1,0,1.8,0,2.4,0c1.6-0.1,7.1-3.2,11.4-6l0.5-0.4h15.3v-1.3H35.9C35,47.3,34.3,47,33.4,46.6z"/>
		<path class="st1" d="M68.5,24.2c0-2-2-3.7-4.1-3.8c-0.6,0-11.6-0.7-17.6-0.7c-1,0-1.8,0-2.4,0c-1.3,0.1-3.4,0.8-5.6,1.8
			c-0.1,0-0.2-0.1-0.4-0.1h-37c-0.5,0-0.9,0.4-0.9,0.9c0,0.5,0.4,0.9,0.9,0.9h33.9c-1.7,0.8-3.2,1.7-3.8,2H16
			c-0.3-0.3-0.6-0.4-1-0.4h-2.6c-0.5,0-1,0.3-1.2,0.6H9c-0.9,0-1.4,0.7-1.4,1.4v3.3c0,0.7,0.6,1.5,1.4,1.5h2.3
			c0.3,0.4,0.7,0.5,1.2,0.5H15c0.4,0,0.8-0.1,1-0.4h15.5c1.7,1,9.6,6.1,12.7,6.3c0.6,0,1.5,0.1,2.5,0.1c0,0,0,0,0,0
			c6.1,0,17.1-0.6,17.7-0.6c2.1,0,4.1-1.7,4.1-3.7V24.2z M9.1,30.3v-3.2c0,0-0.1-0.2-0.1-0.2h2.2v3.4L9.1,30.3
			C9,30.4,9.1,30.3,9.1,30.3z M12.7,30.8v-4.5H15l0,4.5H12.7z M66.7,34c0,1.1-1.1,2-2.3,2l-0.1-0.1c-0.1,0-11.4,0.6-17.6,0.6
			c0,0,0,0,0,0c-1,0-1.8,0-2.4,0c-2.4-0.1-9.5-4.5-12-6.1l-0.2-0.1H17.1v-3.3H32l0.2,0c2.6-1.5,9.7-5.2,12.2-5.4c0.6,0,1.4,0,2.3,0
			c6.1,0,17.4,0.7,17.5,0.7l0.2,0c1.2,0,2.3,0.9,2.3,2V34z"/>
		<path class="st1" d="M4,17.9c0.6,0,11.4,0.6,17.5,0.6c1,0,1.8-0.1,2.5-0.1c3.1-0.2,11-5.3,12.6-6.3h15.5c0.3,0.3,0.6,0.4,1,0.4
			h2.6c0.5,0,0.9-0.3,1.2-0.6h2.3c0.8,0,1.7-0.6,1.7-1.4V7.2c0-0.8-0.8-1.4-1.7-1.4H57C56.7,5.4,56.3,5,55.7,5h-2.6
			c-0.4,0-0.8,0.3-1,0.4H36.6c-0.6-0.3-2-1-3.8-2h33.9c0.5,0,0.9-0.3,0.9-0.8s-0.4-0.8-0.9-0.8h-37c-0.1,0-0.2,0.1-0.3,0.1
			c-2.2-1-4.3-1.7-5.5-1.8c-0.6,0-1.4,0-2.4,0C15.4,0,4.6,0.6,4,0.7c-2.1,0-3.8,1.7-3.8,3.8v9.7C0.2,16.2,1.9,17.9,4,17.9z
			 M59.4,7.3v3.2c0,0-0.3-0.1-0.3,0h-1.7V7.2h1.7C59.2,7.2,59.4,7.3,59.4,7.3z M53.3,6.4h2.4l0,4.7h-2.4V6.4z M1.8,4.4
			c0-1.1,1-2,2.1-2l0,0c0.1,0,11.3-0.7,17.5-0.7c0.9,0,1.7,0,2.3,0c2.4,0.1,9.6,3.9,12.2,5.3l0.2,0h15.4v3.1H36.1l-0.2,0.3
			c-2.5,1.7-9.6,6-12,6.2c-0.6,0-1.4,0.1-2.4,0.1c-6.2,0-17.4-0.6-17.5-0.6l0,0c-1.2,0-2.1-0.9-2.1-2V4.4z"/>
		<path class="st1" d="M68.1,42.2c0-0.5-0.4-0.9-0.9-0.9h-37c-0.1,0-0.2,0.1-0.3,0.1c-2.2-1-4.3-1.8-5.5-1.8c-0.6,0-1.4,0-2.4,0
			c-6,0-16.9,0.6-17.5,0.7c-2.1,0-3.8,1.7-3.8,3.8v9.7c0,2,1.7,3.7,3.8,3.7c0.6,0,11.5,0.6,17.5,0.6c1,0,1.8-0.1,2.5-0.2
			c3.1-0.2,11-5.1,12.7-6.4h15.5c0.3,0.4,0.6,0.5,1,0.5h2.6c0.5,0,0.9-0.3,1.2-0.5h2.3c0.8,0,1.8-0.7,1.8-1.5v-3.3
			c0-0.8-0.9-1.5-1.8-1.5h-2.2c-0.2-0.4-0.7-0.6-1.2-0.6h-2.6c-0.4,0-0.8,0-1,0.4H37.2c-0.6-0.4-2-1.1-3.8-1.9h33.9
			C67.8,43.1,68.1,42.7,68.1,42.2z M60.1,46.9v3.2c0,0-0.4,0.1-0.4,0.1h-1.8v-3.3h1.8C59.7,46.8,60.1,46.9,60.1,46.9z M54,46.1h2.3
			l0,4.7H54V46.1z M36.5,46.7l0.2,0.1h15.4V50H36.7l-0.2,0.2c-2.5,1.7-9.6,6-12,6.1c-0.6,0-1.4,0.1-2.4,0.1
			c-6.2,0-17.4-0.6-17.5-0.6l0,0c-1.2,0-2.1-0.9-2.1-2V44c0-1.1,0.9-2,2.1-2l0,0c0.1,0,11.3-0.7,17.5-0.7c0.9,0,1.7,0,2.3,0
			C26.8,41.5,33.9,45.3,36.5,46.7z"/>
	</g>
	<path class="st1" d="M0.9,63h66.4c0.5,0,0.9-0.4,0.9-0.9c0-0.5-0.4-0.9-0.9-0.9H0.9c-0.5,0-0.9,0.4-0.9,0.9C0,62.6,0.4,63,0.9,63z"
		/>
</g>
</svg>
