<?xml version="1.0" encoding="utf-8"?>
<!-- Generator: Adobe Illustrator 21.0.0, SVG Export Plug-In . SVG Version: 6.00 Build 0)  -->
<svg version="1.1" id="레이어_1" xmlns="http://www.w3.org/2000/svg" xmlns:xlink="http://www.w3.org/1999/xlink" x="0px"
	 y="0px" viewBox="0 0 56.3 63" style="enable-background:new 0 0 56.3 63;" xml:space="preserve">
<style type="text/css">
	.st0{fill:#666666;}
</style>
<path class="st0" d="M56.3,26.3c0-8.4-5-13.5-7.4-15.4c0.9-0.3,0.4-1.3,0.4-1.3l-2.7-8C46.3,0,45.3,0,45.3,0H28h-0.3H10.3
	c0,0-1,0-1.3,1.7l-2.7,8c0,0-0.7,1.3,1,1.3C4.9,13,0,18.1,0,26.3C0,26.3-0.3,40,9.3,61c0,0,0.7,2,3.7,2h13.3H28h15.3
	c3,0,3.7-2,3.7-2C56.7,40,56.3,26.3,56.3,26.3z M45.2,58.7c0,0-0.6,1.8-3.3,1.8H28h-1.5H14.4c-2.7,0-3.3-1.8-3.3-1.8
	c-8.8-19-8.4-31.4-8.4-31.4c0-0.3,0-0.6,0-1c0.5-9.3,7.8-14.8,7.8-14.8h15.9h0h1.2H28h0h17.8c0,0,7.8,5.8,7.8,15.8
	C53.7,27.3,54,39.7,45.2,58.7z"/>
<path class="st0" d="M1.7,25c0,0,5,6,14,5s10-7,25-3s14,0,14,0l-1,13l-5,14l-3,7l-5,1h-28l-3-3l-7-19L1.7,25z"/>
</svg>
