<?xml version="1.0" encoding="utf-8"?>
<!-- Generator: Adobe Illustrator 21.0.0, SVG Export Plug-In . SVG Version: 6.00 Build 0)  -->
<svg version="1.1" id="레이어_1" xmlns="http://www.w3.org/2000/svg" xmlns:xlink="http://www.w3.org/1999/xlink" x="0px"
	 y="0px" viewBox="0 0 49.9 42" style="enable-background:new 0 0 49.9 42;" xml:space="preserve">
<style type="text/css">
	.st0{fill:#FFFFFF;}
</style>
<g>
	<circle class="st0" cx="27.9" cy="18.5" r="2"/>
	<circle class="st0" cx="10.4" cy="18.5" r="2"/>
	<circle class="st0" cx="39.7" cy="18.5" r="2"/>
	<path class="st0" d="M42,0H7.9C3.5,0,0,3.5,0,7.9v18.8c0,4.4,3.5,7.9,7.9,7.9h11.8l4,6.5c0,0,0,0.1,0.1,0.2C24,41.7,24.5,42,25,42
		c0.5,0,0.9-0.3,1.2-0.7c0.1-0.1,0.1-0.2,0.1-0.2l4-6.5H42c4.4,0,7.9-3.5,7.9-7.9V7.9C49.9,3.5,46.4,0,42,0z M11.1,23.2
		c-1.8,0-2.6-1.3-2.6-1.3v1H5.4V10.1h3.1V15c1.2-1.2,2.6-1.2,2.6-1.2c4.1,0,4.3,4.7,4.3,4.7C15.4,23,11.1,23.2,11.1,23.2z
		 M20.7,14.6v8.2h-2.9v-7.5c0-2.6-1.4-2.5-1.4-2.5V9.8C20.8,9.8,20.7,14.6,20.7,14.6z M33.1,18.5c0,4.6-5.2,4.7-5.2,4.7
		c-5.2,0-5.1-4.7-5.1-4.7c0-4.7,5.1-4.7,5.1-4.7C33.3,13.8,33.1,18.5,33.1,18.5z M44.5,22.7c0,4.8-4.5,4.8-4.5,4.8h-1.2v-2.7h0.7
		c2.2,0,1.9-2.2,1.9-2.2v-0.7c-0.9,1.2-2.7,1.2-2.7,1.2c-4.3,0-4.2-4.5-4.2-4.5c0-4.9,4.3-4.7,4.3-4.7c1.7,0,2.6,1.2,2.6,1.2v-0.9h3
		V22.7z"/>
</g>
</svg>
